<mxfile host="app.diagrams.net" agent="Mozilla/5.0 (Windows NT 10.0; Win64; x64) AppleWebKit/537.36 (KHTML, like Gecko) Chrome/131.0.0.0 Safari/537.36" version="24.8.8">
  <diagram name="Page-1" id="9kWKR9OpPXIyJ-o3AYhA">
    <mxGraphModel grid="1" page="1" gridSize="10" guides="1" tooltips="1" connect="1" arrows="1" fold="1" pageScale="1" pageWidth="850" pageHeight="1100" math="0" shadow="0">
      <root>
        <mxCell id="0" />
        <mxCell id="1" parent="0" />
        <mxCell id="8ZU1jRvBUFn3o3Hs9Kqg-1" style="edgeStyle=orthogonalEdgeStyle;rounded=0;orthogonalLoop=1;jettySize=auto;html=1;exitX=0.5;exitY=1;exitDx=0;exitDy=0;entryX=0.5;entryY=0;entryDx=0;entryDy=0;" edge="1" parent="1" source="8ZU1jRvBUFn3o3Hs9Kqg-2" target="8ZU1jRvBUFn3o3Hs9Kqg-4">
          <mxGeometry relative="1" as="geometry" />
        </mxCell>
        <mxCell id="8ZU1jRvBUFn3o3Hs9Kqg-2" value="" style="ellipse;whiteSpace=wrap;html=1;aspect=fixed;fillColor=#000000;" vertex="1" parent="1">
          <mxGeometry x="110" y="80" width="30" height="30" as="geometry" />
        </mxCell>
        <mxCell id="8ZU1jRvBUFn3o3Hs9Kqg-3" style="edgeStyle=orthogonalEdgeStyle;rounded=0;orthogonalLoop=1;jettySize=auto;html=1;exitX=0.5;exitY=1;exitDx=0;exitDy=0;entryX=0.5;entryY=0;entryDx=0;entryDy=0;" edge="1" parent="1" source="8ZU1jRvBUFn3o3Hs9Kqg-4" target="8ZU1jRvBUFn3o3Hs9Kqg-7">
          <mxGeometry relative="1" as="geometry" />
        </mxCell>
        <mxCell id="8ZU1jRvBUFn3o3Hs9Kqg-4" value="Welcome Page Idle" style="rounded=1;whiteSpace=wrap;html=1;" vertex="1" parent="1">
          <mxGeometry x="65" y="140" width="120" height="60" as="geometry" />
        </mxCell>
        <mxCell id="8ZU1jRvBUFn3o3Hs9Kqg-5" style="edgeStyle=orthogonalEdgeStyle;rounded=0;orthogonalLoop=1;jettySize=auto;html=1;exitX=0.5;exitY=1;exitDx=0;exitDy=0;entryX=0.5;entryY=0;entryDx=0;entryDy=0;" edge="1" parent="1" source="8ZU1jRvBUFn3o3Hs9Kqg-7" target="8ZU1jRvBUFn3o3Hs9Kqg-8">
          <mxGeometry relative="1" as="geometry" />
        </mxCell>
        <mxCell id="8ZU1jRvBUFn3o3Hs9Kqg-6" style="edgeStyle=orthogonalEdgeStyle;rounded=0;orthogonalLoop=1;jettySize=auto;html=1;exitX=1;exitY=0.5;exitDx=0;exitDy=0;" edge="1" parent="1" source="8ZU1jRvBUFn3o3Hs9Kqg-7" target="8ZU1jRvBUFn3o3Hs9Kqg-10">
          <mxGeometry relative="1" as="geometry" />
        </mxCell>
        <mxCell id="8ZU1jRvBUFn3o3Hs9Kqg-7" value="" style="rhombus;whiteSpace=wrap;html=1;" vertex="1" parent="1">
          <mxGeometry x="107.5" y="220" width="35" height="40" as="geometry" />
        </mxCell>
        <mxCell id="8ZU1jRvBUFn3o3Hs9Kqg-8" value="Register Account" style="rounded=1;whiteSpace=wrap;html=1;" vertex="1" parent="1">
          <mxGeometry x="65" y="340" width="120" height="60" as="geometry" />
        </mxCell>
        <mxCell id="8ZU1jRvBUFn3o3Hs9Kqg-9" style="edgeStyle=orthogonalEdgeStyle;rounded=0;orthogonalLoop=1;jettySize=auto;html=1;exitX=1;exitY=0.5;exitDx=0;exitDy=0;entryX=0;entryY=0.5;entryDx=0;entryDy=0;" edge="1" parent="1" source="8ZU1jRvBUFn3o3Hs9Kqg-10" target="8ZU1jRvBUFn3o3Hs9Kqg-15">
          <mxGeometry relative="1" as="geometry" />
        </mxCell>
        <mxCell id="8ZU1jRvBUFn3o3Hs9Kqg-10" value="Login" style="rounded=1;whiteSpace=wrap;html=1;" vertex="1" parent="1">
          <mxGeometry x="290" y="210" width="120" height="60" as="geometry" />
        </mxCell>
        <mxCell id="8ZU1jRvBUFn3o3Hs9Kqg-11" value="Registered User" style="text;html=1;align=center;verticalAlign=middle;resizable=0;points=[];autosize=1;strokeColor=none;fillColor=none;" vertex="1" parent="1">
          <mxGeometry x="155" y="210" width="110" height="30" as="geometry" />
        </mxCell>
        <mxCell id="8ZU1jRvBUFn3o3Hs9Kqg-12" value="" style="curved=1;endArrow=classic;html=1;rounded=0;exitX=1;exitY=0.5;exitDx=0;exitDy=0;entryX=0.5;entryY=1;entryDx=0;entryDy=0;" edge="1" parent="1" source="8ZU1jRvBUFn3o3Hs9Kqg-8" target="8ZU1jRvBUFn3o3Hs9Kqg-10">
          <mxGeometry width="50" height="50" relative="1" as="geometry">
            <mxPoint x="450" y="410" as="sourcePoint" />
            <mxPoint x="500" y="360" as="targetPoint" />
            <Array as="points">
              <mxPoint x="270" y="340" />
              <mxPoint x="350" y="290" />
            </Array>
          </mxGeometry>
        </mxCell>
        <mxCell id="8ZU1jRvBUFn3o3Hs9Kqg-13" value="Registered User" style="text;html=1;align=center;verticalAlign=middle;resizable=0;points=[];autosize=1;strokeColor=none;fillColor=none;" vertex="1" parent="1">
          <mxGeometry x="260" y="330" width="110" height="30" as="geometry" />
        </mxCell>
        <mxCell id="8ZU1jRvBUFn3o3Hs9Kqg-14" style="edgeStyle=orthogonalEdgeStyle;rounded=0;orthogonalLoop=1;jettySize=auto;html=1;exitX=0.25;exitY=1;exitDx=0;exitDy=0;entryX=0.25;entryY=0;entryDx=0;entryDy=0;" edge="1" parent="1" source="8ZU1jRvBUFn3o3Hs9Kqg-15" target="8ZU1jRvBUFn3o3Hs9Kqg-19">
          <mxGeometry relative="1" as="geometry" />
        </mxCell>
        <mxCell id="8ZU1jRvBUFn3o3Hs9Kqg-15" value="Browse Movies" style="rounded=1;whiteSpace=wrap;html=1;" vertex="1" parent="1">
          <mxGeometry x="530" y="210" width="120" height="60" as="geometry" />
        </mxCell>
        <mxCell id="8ZU1jRvBUFn3o3Hs9Kqg-16" value="Look for Movies" style="text;html=1;align=center;verticalAlign=middle;resizable=0;points=[];autosize=1;strokeColor=none;fillColor=none;" vertex="1" parent="1">
          <mxGeometry x="420" y="210" width="110" height="30" as="geometry" />
        </mxCell>
        <mxCell id="8ZU1jRvBUFn3o3Hs9Kqg-17" style="edgeStyle=orthogonalEdgeStyle;rounded=0;orthogonalLoop=1;jettySize=auto;html=1;exitX=0.75;exitY=0;exitDx=0;exitDy=0;entryX=0.75;entryY=1;entryDx=0;entryDy=0;" edge="1" parent="1" source="8ZU1jRvBUFn3o3Hs9Kqg-19" target="8ZU1jRvBUFn3o3Hs9Kqg-15">
          <mxGeometry relative="1" as="geometry" />
        </mxCell>
        <mxCell id="8ZU1jRvBUFn3o3Hs9Kqg-38" style="edgeStyle=orthogonalEdgeStyle;rounded=0;orthogonalLoop=1;jettySize=auto;html=1;exitX=0.5;exitY=1;exitDx=0;exitDy=0;entryX=0.5;entryY=0;entryDx=0;entryDy=0;" edge="1" parent="1" source="8ZU1jRvBUFn3o3Hs9Kqg-19" target="8ZU1jRvBUFn3o3Hs9Kqg-37">
          <mxGeometry relative="1" as="geometry" />
        </mxCell>
        <mxCell id="8ZU1jRvBUFn3o3Hs9Kqg-19" value="Select Movie" style="rounded=1;whiteSpace=wrap;html=1;" vertex="1" parent="1">
          <mxGeometry x="530" y="370" width="120" height="60" as="geometry" />
        </mxCell>
        <mxCell id="8ZU1jRvBUFn3o3Hs9Kqg-20" value="Find Movie to Review" style="text;html=1;align=center;verticalAlign=middle;resizable=0;points=[];autosize=1;strokeColor=none;fillColor=none;" vertex="1" parent="1">
          <mxGeometry x="420" y="320" width="140" height="30" as="geometry" />
        </mxCell>
        <mxCell id="8ZU1jRvBUFn3o3Hs9Kqg-21" value="Decide to keep looking" style="text;html=1;align=center;verticalAlign=middle;resizable=0;points=[];autosize=1;strokeColor=none;fillColor=none;" vertex="1" parent="1">
          <mxGeometry x="620" y="320" width="140" height="30" as="geometry" />
        </mxCell>
        <mxCell id="8ZU1jRvBUFn3o3Hs9Kqg-24" value="Decide to write review" style="text;html=1;align=center;verticalAlign=middle;resizable=0;points=[];autosize=1;strokeColor=none;fillColor=none;" vertex="1" parent="1">
          <mxGeometry x="435" y="440" width="140" height="30" as="geometry" />
        </mxCell>
        <mxCell id="8ZU1jRvBUFn3o3Hs9Kqg-25" style="edgeStyle=orthogonalEdgeStyle;rounded=0;orthogonalLoop=1;jettySize=auto;html=1;exitX=0.5;exitY=1;exitDx=0;exitDy=0;entryX=0.5;entryY=0;entryDx=0;entryDy=0;" edge="1" parent="1" source="8ZU1jRvBUFn3o3Hs9Kqg-26" target="8ZU1jRvBUFn3o3Hs9Kqg-28">
          <mxGeometry relative="1" as="geometry">
            <mxPoint x="590" y="850" as="targetPoint" />
          </mxGeometry>
        </mxCell>
        <mxCell id="8ZU1jRvBUFn3o3Hs9Kqg-26" value="Posting Review" style="rounded=1;whiteSpace=wrap;html=1;" vertex="1" parent="1">
          <mxGeometry x="530" y="580" width="120" height="60" as="geometry" />
        </mxCell>
        <mxCell id="8ZU1jRvBUFn3o3Hs9Kqg-27" value="" style="ellipse;whiteSpace=wrap;html=1;aspect=fixed;fillColor=#000000;movable=1;resizable=1;rotatable=1;deletable=1;editable=1;locked=0;connectable=1;" vertex="1" parent="1">
          <mxGeometry x="575" y="665" width="30" height="30" as="geometry" />
        </mxCell>
        <mxCell id="8ZU1jRvBUFn3o3Hs9Kqg-28" value="" style="ellipse;whiteSpace=wrap;html=1;aspect=fixed;fillColor=none;movable=1;resizable=1;rotatable=1;deletable=1;editable=1;locked=0;connectable=1;" vertex="1" parent="1">
          <mxGeometry x="570" y="660" width="40" height="40" as="geometry" />
        </mxCell>
        <mxCell id="8ZU1jRvBUFn3o3Hs9Kqg-32" value="" style="curved=1;endArrow=classic;html=1;rounded=0;exitX=1;exitY=0.5;exitDx=0;exitDy=0;entryX=1;entryY=0.5;entryDx=0;entryDy=0;" edge="1" parent="1" source="8ZU1jRvBUFn3o3Hs9Kqg-26" target="8ZU1jRvBUFn3o3Hs9Kqg-15">
          <mxGeometry width="50" height="50" relative="1" as="geometry">
            <mxPoint x="300" y="720" as="sourcePoint" />
            <mxPoint x="350" y="670" as="targetPoint" />
            <Array as="points">
              <mxPoint x="760" y="630" />
              <mxPoint x="830" y="510" />
              <mxPoint x="820" y="340" />
            </Array>
          </mxGeometry>
        </mxCell>
        <mxCell id="8ZU1jRvBUFn3o3Hs9Kqg-35" value="Change Mind" style="text;html=1;align=center;verticalAlign=middle;resizable=0;points=[];autosize=1;strokeColor=none;fillColor=none;" vertex="1" parent="1">
          <mxGeometry x="720" y="260" width="90" height="30" as="geometry" />
        </mxCell>
        <mxCell id="8ZU1jRvBUFn3o3Hs9Kqg-39" style="edgeStyle=orthogonalEdgeStyle;rounded=0;orthogonalLoop=1;jettySize=auto;html=1;exitX=0.5;exitY=1;exitDx=0;exitDy=0;entryX=0.5;entryY=0;entryDx=0;entryDy=0;" edge="1" parent="1" source="8ZU1jRvBUFn3o3Hs9Kqg-37" target="8ZU1jRvBUFn3o3Hs9Kqg-26">
          <mxGeometry relative="1" as="geometry" />
        </mxCell>
        <mxCell id="8ZU1jRvBUFn3o3Hs9Kqg-37" value="Writing Review" style="rounded=1;whiteSpace=wrap;html=1;" vertex="1" parent="1">
          <mxGeometry x="530" y="470" width="120" height="60" as="geometry" />
        </mxCell>
        <mxCell id="8ZU1jRvBUFn3o3Hs9Kqg-40" value="" style="endArrow=none;html=1;rounded=0;exitX=1;exitY=0.5;exitDx=0;exitDy=0;" edge="1" parent="1" source="8ZU1jRvBUFn3o3Hs9Kqg-37">
          <mxGeometry width="50" height="50" relative="1" as="geometry">
            <mxPoint x="270" y="610" as="sourcePoint" />
            <mxPoint x="820" y="480" as="targetPoint" />
          </mxGeometry>
        </mxCell>
        <mxCell id="8ZU1jRvBUFn3o3Hs9Kqg-41" value="Finish Review" style="text;html=1;align=center;verticalAlign=middle;resizable=0;points=[];autosize=1;strokeColor=none;fillColor=none;" vertex="1" parent="1">
          <mxGeometry x="460" y="530" width="100" height="30" as="geometry" />
        </mxCell>
      </root>
    </mxGraphModel>
  </diagram>
</mxfile>
